<?xml version="1.0" encoding="utf-8"?>
<!-- Generator: Adobe Illustrator 21.1.0, SVG Export Plug-In . SVG Version: 6.00 Build 0)  -->
<svg version="1.1" id="Layer_1" xmlns="http://www.w3.org/2000/svg" xmlns:xlink="http://www.w3.org/1999/xlink" x="0px" y="0px"
	 viewBox="0 0 1366 768" style="enable-background:new 0 0 1366 768;" xml:space="preserve">
<style type="text/css">
	.st0{fill-rule:evenodd;clip-rule:evenodd;}
	.st1{fill-rule:evenodd;clip-rule:evenodd;fill:#FFFFFF;}
</style>
<g>
	<polygon class="st0" points="586,288 778.8,288 778.8,480.8 586,480.8 586,288 	"/>
	<path class="st1" d="M658.2,461.3h-10.5l-3.2-7.7h-17.4l-2.9,7.7h-10.3l15.7-39h11.3L658.2,461.3L658.2,461.3L658.2,461.3z
		 M635.4,431.6l-5.7,15.2h12L635.4,431.6L635.4,431.6z"/>
	<polygon class="st1" points="696.2,422.3 704.7,422.3 704.7,461.3 695,461.3 695,437 684.4,449.2 682.9,449.2 672.4,437 
		672.4,461.3 662.7,461.3 662.7,422.3 671.2,422.3 683.7,436.8 696.2,422.3 	"/>
	<path class="st1" d="M729.3,422.3c14.2,0,21.6,8.9,21.6,19.6c0,11.2-7.1,19.4-22.7,19.4h-16.1v-39H729.3L729.3,422.3L729.3,422.3z
		 M721.8,454.2h6.3c9.8,0,12.7-6.6,12.7-12.4c0-6.7-3.6-12.4-12.8-12.4h-6.2V454.2L721.8,454.2z"/>
	<polygon class="st1" points="702.5,333.4 660.1,333.4 634,307.5 728.8,307.4 728.8,402.1 702.5,375.6 702.5,333.4 	"/>
	<polygon class="st1" points="660.4,376.4 660.2,338.2 633.3,365 633.3,402.8 672.2,402.8 698.5,376.4 660.4,376.4 	"/>
</g>
</svg>
