<svg xmlns="http://www.w3.org/2000/svg" xmlns:xlink="http://www.w3.org/1999/xlink" width="1080" zoomAndPan="magnify" viewBox="0 0 810 809.999993" height="1080" preserveAspectRatio="xMidYMid meet" version="1.0"><path fill="#ab82f9" d="M 625.945312 325.132812 C 609.554688 321.4375 593.738281 316.707031 579.078125 310.816406 C 561.53125 303.082031 545.023438 293.152344 530.015625 282.1875 C 515.007812 270.066406 501.039062 256.09375 488.917969 241.085938 C 475.066406 222.382812 462.945312 201.488281 453.019531 179.089844 C 450.132812 171.355469 447.128906 163.738281 444.589844 156.347656 L 436.164062 130.71875 L 431.429688 157.039062 C 425.542969 188.671875 416.769531 218.34375 404.996094 245.472656 L 403.609375 248.820312 L 405.34375 251.707031 C 414.921875 267.523438 425.890625 283.226562 438.011719 298.003906 C 461.097656 325.480469 489.726562 349.261719 521.242188 366.578125 L 525.976562 369.117188 L 528.863281 367.617188 C 550.5625 358.152344 568.804688 351.570312 586.464844 346.722656 C 598.933594 343.488281 612.09375 340.488281 625.601562 338.292969 L 661.5 332.40625 Z M 625.945312 325.132812 " fill-opacity="1" fill-rule="nonzero"/><path fill="#a063fc" d="M 78.878906 456.398438 C 89.847656 457.550781 101.273438 457.207031 112.242188 456.398438 C 143.0625 455.011719 173.769531 450.511719 203.4375 442.542969 C 223.292969 437.003906 242.34375 429.613281 261.390625 421.53125 C 278.242188 414.257812 293.941406 405.484375 309.066406 395.210938 C 349.699219 366.925781 383.753906 330.558594 407.1875 286.574219 C 437.320312 230.464844 450.132812 167.777344 453.019531 104.625 C 453.363281 96.199219 453.710938 87.769531 453.710938 79.34375 C 453.710938 67.566406 448.632812 54.753906 440.203125 46.324219 C 432.125 38.242188 418.964844 32.011719 407.1875 32.703125 C 395.183594 33.050781 382.714844 37.089844 374.289062 46.324219 C 365.863281 55.445312 360.667969 66.414062 360.667969 79.34375 C 360.667969 101.742188 359.167969 124.023438 356.28125 146.417969 C 356.972656 142.378906 357.433594 138.335938 358.128906 133.949219 C 353.742188 165.46875 346.007812 197.101562 333.886719 226.425781 C 335.386719 222.730469 337.234375 219.035156 338.734375 215.457031 C 329.5 237.390625 317.839844 257.941406 303.179688 276.644531 C 305.71875 273.414062 307.910156 270.410156 310.449219 267.179688 C 296.945312 284.378906 281.589844 300.195312 263.929688 313.703125 C 267.277344 311.164062 270.164062 308.96875 273.511719 306.429688 C 254 321.4375 232.761719 333.5625 210.480469 342.679688 C 214.058594 341.296875 217.753906 339.449219 221.449219 337.949219 C 198.359375 347.53125 174.578125 354.457031 149.992188 358.84375 C 144.101562 360 137.871094 361.039062 131.980469 361.730469 C 136.023438 361.039062 140.0625 360.691406 144.449219 360 C 124.015625 362.539062 103.46875 364.039062 82.921875 362.886719 C 81.765625 362.886719 80.378906 362.886719 79.226562 362.539062 C 67.914062 361.382812 53.945312 368.425781 46.328125 376.046875 C 38.246094 384.128906 32.011719 397.402344 32.703125 409.0625 C 33.050781 421.1875 37.089844 433.65625 46.328125 442.082031 C 49.558594 444.738281 52.558594 446.929688 55.792969 449.472656 C 62.71875 454.203125 70.453125 456.398438 78.878906 456.398438 Z M 78.878906 456.398438 " fill-opacity="1" fill-rule="nonzero"/><path fill="#8c69e0" d="M 406.148438 550.71875 C 398.070312 538.25 389.296875 525.78125 379.367188 514.007812 C 356.28125 486.53125 327.652344 462.632812 296.136719 445.429688 C 293.941406 444.277344 291.402344 442.890625 289.210938 441.734375 L 286.324219 440.234375 L 281.589844 442.542969 C 280.78125 442.890625 280.4375 442.890625 279.742188 443.238281 C 257.347656 453.164062 238.648438 459.746094 221.101562 464.480469 C 209.671875 467.480469 198.011719 470.019531 185.546875 472.214844 L 148.835938 478.796875 L 185.546875 485.835938 C 203.902344 489.417969 221.449219 494.613281 237.957031 501.191406 C 255.5 508.925781 272.007812 518.855469 287.015625 529.824219 C 302.023438 541.945312 315.992188 555.800781 328.113281 570.921875 C 341.964844 589.625 354.085938 610.523438 364.015625 632.917969 C 364.707031 634.765625 365.398438 636.613281 366.207031 638.804688 L 374.289062 660.050781 L 379.023438 638 C 385.253906 609.367188 394.375 582.238281 406.148438 557.644531 L 407.652344 554.414062 Z M 406.148438 550.71875 " fill-opacity="1" fill-rule="nonzero"/><path fill="#723bde" d="M 730.765625 356.996094 C 719.796875 355.957031 708.484375 356.304688 697.402344 356.996094 C 666.695312 358.496094 635.875 362.886719 606.207031 370.964844 C 586.464844 376.507812 567.417969 383.78125 548.253906 391.863281 C 531.402344 399.25 515.703125 408.023438 500.695312 418.300781 C 459.945312 446.585938 425.890625 482.835938 402.457031 526.820312 C 372.441406 583.046875 359.628906 645.734375 356.625 708.882812 C 356.28125 717.3125 355.933594 725.738281 355.933594 734.167969 C 355.933594 745.828125 361.011719 758.757812 369.441406 767.183594 C 377.519531 775.265625 390.679688 781.5 402.457031 780.691406 C 414.578125 780.347656 427.042969 776.304688 435.472656 767.183594 C 443.898438 757.949219 448.976562 746.980469 448.976562 734.167969 C 448.976562 711.769531 450.480469 689.371094 453.363281 666.976562 C 452.671875 671.015625 452.324219 675.058594 451.515625 679.445312 C 456.019531 647.925781 463.636719 616.410156 475.757812 587.085938 C 474.257812 590.664062 472.410156 594.359375 471.027344 598.054688 C 480.144531 576.003906 491.921875 555.453125 506.582031 536.75 C 503.925781 540.097656 501.734375 542.984375 499.195312 546.332031 C 512.816406 529.015625 528.167969 513.3125 545.714844 499.691406 C 542.484375 502.347656 539.480469 504.539062 536.25 507.078125 C 555.644531 492.070312 576.882812 479.949219 599.28125 470.714844 C 595.585938 472.214844 591.890625 474.0625 588.199219 475.5625 C 611.285156 465.980469 635.179688 459.054688 659.652344 454.550781 C 665.542969 453.511719 671.773438 452.355469 677.664062 451.664062 C 673.621094 452.355469 669.582031 452.820312 665.195312 453.511719 C 685.742188 450.972656 706.292969 449.472656 726.722656 450.511719 C 727.878906 450.511719 729.378906 450.511719 730.417969 450.972656 C 741.847656 452.011719 755.699219 445.085938 763.433594 437.347656 C 771.515625 429.269531 777.75 416.105469 776.941406 404.332031 C 776.59375 392.207031 772.554688 379.742188 763.433594 371.3125 C 760.085938 368.773438 757.199219 366.578125 753.851562 364.039062 C 746.925781 359.191406 739.191406 356.996094 730.765625 356.996094 Z M 730.765625 356.996094 " fill-opacity="1" fill-rule="nonzero"/></svg>