<svg xmlns="http://www.w3.org/2000/svg" width="500" height="500" viewBox="0 0 375 375" preserveAspectRatio="xMidYMid meet">
  <defs>
    <linearGradient id="primaryGradient" x1="0%" y1="0%" x2="100%" y2="100%">
      <stop offset="0%" style="stop-color:hsl(220, 90%, 56%);stop-opacity:1" />
      <stop offset="50%" style="stop-color:hsl(280, 60%, 60%);stop-opacity:1" />
      <stop offset="100%" style="stop-color:hsl(170, 70%, 50%);stop-opacity:1" />
    </linearGradient>
    <filter id="glow">
      <feGaussianBlur stdDeviation="4" result="coloredBlur"/>
      <feMerge>
        <feMergeNode in="coloredBlur"/>
        <feMergeNode in="SourceGraphic"/>
      </feMerge>
    </filter>
    <clipPath id="roundedRect">
      <rect x="0" y="0" width="375" height="375" rx="60" ry="60"/>
    </clipPath>
  </defs>
  
  <!-- Background with gradient -->
  <rect width="375" height="375" rx="60" ry="60" fill="url(#primaryGradient)" opacity="0.15"/>
  
  <!-- Dark overlay for better contrast -->
  <rect width="375" height="375" rx="60" ry="60" fill="hsl(220, 25%, 8%)" opacity="0.85"/>
  
  <!-- SS Text with gradient and glow -->
  <g filter="url(#glow)">
    <!-- First S -->
    <path d="M 43.613281 274.125 C 37.84375 274.125 32.554688 272.707031 27.746094 269.875 C 22.9375 267.039062 19.117188 263.21875 16.28125 258.410156 C 13.445312 253.601562 12.03125 248.3125 12.03125 242.546875 L 12.03125 230.101562 L 41.960938 230.101562 L 41.960938 241.292969 C 41.960938 242.046875 42.226562 242.691406 42.765625 243.230469 C 43.308594 243.773438 43.953125 244.042969 44.703125 244.042969 L 142.273438 244.042969 C 143.027344 244.042969 143.671875 243.773438 144.210938 243.230469 C 144.753906 242.691406 145.023438 242.046875 145.023438 241.292969 L 145.023438 210.261719 C 145.023438 209.511719 144.753906 208.878906 144.210938 208.363281 C 143.671875 207.84375 143.027344 207.585938 142.273438 207.585938 L 43.613281 207.585938 C 37.84375 207.585938 32.554688 206.15625 27.746094 203.300781 C 22.9375 200.441406 19.117188 196.628906 16.28125 191.871094 C 13.445312 187.109375 12.03125 181.820312 12.03125 176.003906 L 12.03125 142.472656 C 12.03125 136.703125 13.445312 131.417969 16.28125 126.609375 C 19.117188 121.804688 22.9375 117.980469 27.746094 115.148438 C 32.554688 112.3125 37.84375 110.894531 43.613281 110.894531 L 143.679688 110.894531 C 149.410156 110.894531 154.664062 112.3125 159.4375 115.148438 C 164.210938 117.980469 168.042969 121.804688 170.929688 126.609375 C 173.816406 131.417969 175.261719 136.703125 175.261719 142.472656 L 175.261719 154.917969 L 145.023438 154.917969 L 145.023438 143.722656 C 145.023438 142.972656 144.753906 142.328125 144.210938 141.785156 C 143.671875 141.246094 143.027344 140.976562 142.273438 140.976562 L 44.703125 140.976562 C 43.953125 140.976562 43.308594 141.246094 42.765625 141.785156 C 42.226562 142.328125 41.960938 142.972656 41.960938 143.722656 L 41.960938 174.753906 C 41.960938 175.507812 42.226562 176.140625 42.765625 176.65625 C 43.308594 177.175781 43.953125 177.433594 44.703125 177.433594 L 143.679688 177.433594 C 149.410156 177.433594 154.664062 178.863281 159.4375 181.722656 C 164.210938 184.582031 168.042969 188.390625 170.929688 193.152344 C 173.816406 197.910156 175.261719 203.195312 175.261719 209.011719 L 175.261719 242.546875 C 175.261719 248.3125 173.816406 253.601562 170.929688 258.410156 C 168.042969 263.21875 164.210938 267.039062 159.4375 269.875 C 154.664062 272.707031 149.410156 274.125 143.679688 274.125 Z M 43.613281 274.125" 
          fill="url(#primaryGradient)"/>
    
    <!-- Second S -->
    <path d="M 230.875531 274.125 C 225.105781 274.125 219.816906 272.707031 215.008312 269.875 C 210.199719 267.039062 206.379906 263.21875 203.543469 258.410156 C 200.707812 253.601562 199.293438 248.3125 199.293438 242.546875 L 199.293438 230.101562 L 229.223156 230.101562 L 229.223156 241.292969 C 229.223156 242.046875 229.488781 242.691406 230.027844 243.230469 C 230.570312 243.773438 231.215312 244.042969 231.965312 244.042969 L 329.535656 244.042969 C 330.289844 244.042969 330.934062 243.773438 331.473156 243.230469 C 332.015625 242.691406 332.285656 242.046875 332.285656 241.292969 L 332.285656 210.261719 C 332.285656 209.511719 332.015625 208.878906 331.473156 208.363281 C 330.934062 207.84375 330.289844 207.585938 329.535656 207.585938 L 230.875531 207.585938 C 225.105781 207.585938 219.816906 206.15625 215.008312 203.300781 C 210.199719 200.441406 206.379906 196.628906 203.543469 191.871094 C 200.707812 187.109375 199.293438 181.820312 199.293438 176.003906 L 199.293438 142.472656 C 199.293438 136.703125 200.707812 131.417969 203.543469 126.609375 C 206.379906 121.804688 210.199719 117.980469 215.008312 115.148438 C 219.816906 112.3125 225.105781 110.894531 230.875531 110.894531 L 330.941906 110.894531 C 336.672375 110.894531 341.926281 112.3125 346.699719 115.148438 C 351.473156 117.980469 355.305187 121.804688 358.191906 126.609375 C 361.078625 131.417969 362.523937 136.703125 362.523937 142.472656 L 362.523937 154.917969 L 332.285656 154.917969 L 332.285656 143.722656 C 332.285656 142.972656 332.015625 142.328125 331.473156 141.785156 C 330.934062 141.246094 330.289844 140.976562 329.535656 140.976562 L 231.965312 140.976562 C 231.215312 140.976562 230.570312 141.246094 230.027844 141.785156 C 229.488781 142.328125 229.223156 142.972656 229.223156 143.722656 L 229.223156 174.753906 C 229.223156 175.507812 229.488781 176.140625 230.027844 176.65625 C 230.570312 177.175781 231.215312 177.433594 231.965312 177.433594 L 330.941906 177.433594 C 336.672375 177.433594 341.926281 178.863281 346.699719 181.722656 C 351.473156 184.582031 355.305187 188.390625 358.191906 193.152344 C 361.078625 197.910156 362.523937 203.195312 362.523937 209.011719 L 362.523937 242.546875 C 362.523937 248.3125 361.078625 253.601562 358.191906 258.410156 C 355.305187 263.21875 351.473156 267.039062 346.699719 269.875 C 341.926281 272.707031 336.672375 274.125 330.941906 274.125 Z M 230.875531 274.125" 
          fill="url(#primaryGradient)"/>
  </g>
</svg>
